#!OML:ASF X:\für Bonn\!DataBase\2005_08_12_Daniel\c3d\Daniel.ASF
:FULLY-SPECIFIED
:DEGREES
157
root -4.07819 17.0732 -3.11353 327.927 -80.3767 -336.23
lowerback 31.1197 -3.45606 -1.48148
upperback 1.88798 -5.65787 -2.4466
thorax -14.2649 -2.61417 0.457783
lowerneck 7.34231 2.78201 -5.02537
upperneck 3.92284 3.195 0.546008
head -0.0962683 1.47545 0.927909
rclavicle -6.33129e-014 -3.97569e-016
rhumerus 55.054 3.70244 -85.4458
rradius 13.1703
rwrist 51.9296
rhand -26.9957 12.4176
rfingers 7.12502
rthumb -0.415904 -17.5617
lclavicle -6.33129e-014 -3.97569e-016
lhumerus 59.0387 -2.97151 83.7368
lradius 11.3739
lwrist -55.7847
lhand -20.3619 2.40071
lfingers 7.12502
lthumb 5.99038 32.296
rfemur -21.9908 -10.6148 8.85621
rtibia 64.3431
rfoot -0.723169 -6.81384
rtoes -8.63936
lfemur -21.9395 -5.41866 -19.3894
ltibia 54.7769
lfoot -7.59175 2.80039
ltoes -7.79969
158
root -4.12412 17.1588 -3.12088 328.111 -80.4172 -336.268
lowerback 30.5948 -3.46688 -1.51307
upperback 1.68427 -5.66335 -2.45301
thorax -14.2671 -2.61055 0.449139
lowerneck 7.32198 2.80088 -5.10004
upperneck 4.31936 3.20877 0.662189
head 0.026184 1.47008 0.979093
rclavicle 6.33129e-014 1.59028e-014
rhumerus 54.531 4.23282 -84.5965
rradius 13.1548
rwrist 50.7624
rhand -26.5048 12.7286
rfingers 7.12502
rthumb 0.0582402 -17.2511
lclavicle 6.33129e-014 1.59028e-014
lhumerus 58.3571 -3.60955 82.4789
lradius 11.6461
lwrist -54.2193
lhand -19.8464 2.37321
lfingers 7.12502
lthumb 6.48806 32.2538
rfemur -20.9214 -10.21 9.07923
rtibia 62.4118
rfoot -1.5038 -6.94463
rtoes -9.00256
lfemur -20.9619 -6.12897 -19.4417
ltibia 53.2453
lfoot -7.50115 3.50855
ltoes -7.86558
159
root -4.17024 17.2392 -3.1292 328.208 -80.4628 -336.218
lowerback 30.0622 -3.47099 -1.55539
upperback 1.49285 -5.66437 -2.46185
thorax -14.2477 -2.60558 0.44063
lowerneck 7.29035 2.82019 -5.1607
upperneck 4.7059 3.22459 0.74641
head 0.148198 1.46626 1.01821
rclavicle 2.55935e-014 -2.18663e-014
rhumerus 54.0701 4.99287 -83.3452
rradius 13.1428
rwrist 49.1993
rhand -26.0126 13.0244
rfingers 7.12502
rthumb 0.533609 -16.9547
lclavicle 2.55935e-014 -2.18663e-014
lhumerus 57.6587 -4.30763 81.172
lradius 11.9776
lwrist -52.4341
lhand -19.5001 2.263
lfingers 7.12502
lthumb 6.82245 32.1331
rfemur -19.852 -9.7559 9.29867
rtibia 60.413
rfoot -2.31727 -7.16042
rtoes -9.58106
lfemur -19.9822 -6.82567 -19.4977
ltibia 51.7304
lfoot -7.47877 4.21428
ltoes -7.75585
160
root -4.22097 17.3162 -3.13831 328.267 -80.5096 -336.131
lowerback 29.4795 -3.46873 -1.61356
upperback 1.32005 -5.66065 -2.47026
thorax -14.1793 -2.59961 0.435402
lowerneck 7.29183 2.84185 -5.21599
upperneck 5.05352 3.24147 0.823131
head 0.252942 1.46373 1.05369
rclavicle -2.49475e-014 8.34896e-015
rhumerus 53.6048 5.70031 -82.2363
rradius 13.1324
rwrist 47.8795
rhand -25.5508 13.3227
rfingers 7.12502
rthumb 0.97959 -16.6548
lclavicle -2.49475e-014 8.34896e-015
lhumerus 56.9325 -5.19079 79.6415
lradius 12.361
lwrist -50.1314
lhand -19.3529 2.16468
lfingers 7.12502
lthumb 6.96447 32.0301
rfemur -18.7392 -9.22112 9.52341
rtibia 58.3381
rfoot -3.19456 -7.44362
rtoes -10.2889
lfemur -18.9733 -7.4904 -19.5588
ltibia 50.2256
lfoot -7.52147 4.86885
ltoes -7.64573
161
root -4.27357 17.3884 -3.14821 328.387 -80.5736 -336.113
lowerback 28.8872 -3.47023 -1.6664
upperback 1.15453 -5.65815 -2.4702
thorax -14.094 -2.59505 0.435736
lowerneck 7.31929 2.87641 -5.29843
upperneck 5.34722 3.27157 0.918113
head 0.335549 1.46846 1.09884
rclavicle 4.58199e-014 1.43125e-014
rhumerus 53.133 6.66439 -80.7731
rradius 13.184
rwrist 46.2014
rhand -25.1673 13.5976
rfingers 7.12502
rthumb 1.34994 -16.3779
lclavicle 4.58199e-014 1.43125e-014
lhumerus 56.1556 -6.13049 78.0962
lradius 12.8131
lwrist -47.5496
lhand -19.4529 2.08522
lfingers 7.12502
lthumb 6.86799 31.9538
rfemur -17.604 -8.63428 9.77986
rtibia 56.2091
rfoot -4.04923 -7.7725
rtoes -11.0012
lfemur -17.9599 -8.11989 -19.5904
ltibia 48.7414
lfoot -7.62716 5.49698
ltoes -7.56634
162
root -4.32299 17.4526 -3.15832 328.448 -80.6227 -336.044
lowerback 28.2789 -3.47322 -1.70333
upperback 1.37333 -5.64755 -2.45882
thorax -14.3222 -2.59961 0.387007
lowerneck 7.32839 2.90023 -5.33811
upperneck 5.62592 3.29224 0.988345
head 0.418093 1.4698 1.12941
rclavicle 2.40032e-014 -1.74931e-014
rhumerus 52.6546 7.58549 -79.4028
rradius 13.25
rwrist 44.6772
rhand -24.9508 13.8721
rfingers 7.12502
rthumb 1.55904 -16.1019
lclavicle 2.40032e-014 -1.74931e-014
lhumerus 55.4732 -7.33292 76.1765
lradius 13.3738
lwrist -44.367
lhand -19.6978 2.05425
lfingers 7.12502
lthumb 6.63151 31.9304
rfemur -16.4675 -8.01487 10.0188
rtibia 54.0602
rfoot -4.83327 -8.17456
rtoes -11.3763
lfemur -16.9795 -8.74681 -19.6436
ltibia 47.3091
lfoot -7.73584 6.12735
ltoes -7.4517
163
root -4.3737 17.5098 -3.16994 328.347 -80.694 -335.812
lowerback 27.6753 -3.45756 -1.79666
upperback 1.22607 -5.63523 -2.46214
thorax -14.1616 -2.59072 0.39959
lowerneck 7.33642 2.93246 -5.36088
upperneck 5.89009 3.32619 1.00791
head 0.497263 1.47827 1.1408
rclavicle 1.22253e-014 2.62396e-014
rhumerus 52.083 8.64455 -77.9141
rradius 13.4706
rwrist 42.9891
rhand -24.9037 14.1535
rfingers 7.12502
rthumb 1.60457 -15.8202
lclavicle 1.22253e-014 2.62396e-014
lhumerus 54.9419 -8.77835 73.8437
lradius 13.9974
lwrist -40.5156
lhand -20.0391 2.08901
lfingers 7.12502
lthumb 6.30205 31.9753
rfemur -15.3262 -7.30182 10.2628
rtibia 51.9109
rfoot -5.7651 -8.62161
rtoes -11.83
lfemur -16.0216 -9.33879 -19.7007
ltibia 45.9434
lfoot -7.94019 6.71302
ltoes -7.24379
164
root -4.42321 17.5572 -3.18178 328.208 -80.747 -335.553
lowerback 27.0718 -3.4491 -1.87596
upperback 1.0942 -5.63088 -2.48944
thorax -13.9847 -2.58842 0.37928
lowerneck 7.3637 2.96501 -5.33072
upperneck 6.11901 3.36345 1.02647
head 0.563141 1.49034 1.14231
rclavicle -7.87684e-014 -5.96354e-015
rhumerus 51.4902 9.77382 -76.3767
rradius 13.7462
rwrist 41.2055
rhand -25.0864 14.4722
rfingers 7.12502
rthumb 1.4281 -15.5028
lclavicle -7.87684e-014 -5.96354e-015
lhumerus 54.4914 -10.2439 71.5193
lradius 14.7078
lwrist -36.6112
lhand -20.3653 2.04656
lfingers 7.12502
lthumb 5.98715 31.942
rfemur -14.1806 -6.54173 10.4998
rtibia 49.8094
rfoot -6.80044 -9.09864
rtoes -12.1991
lfemur -15.115 -9.90996 -19.7732
ltibia 44.6746
lfoot -8.18911 7.27406
ltoes -7.22193
165
root -4.47222 17.5977 -3.19419 327.836 -80.8314 -335.045
lowerback 26.4213 -3.41696 -2.00088
upperback 0.984543 -5.60587 -2.51283
thorax -13.7488 -2.57583 0.378142
lowerneck 7.37711 2.99778 -5.25133
upperneck 6.30404 3.40782 0.987616
head 0.619343 1.50825 1.11696
rclavicle 4.55217e-014 1.15295e-014
rhumerus 50.9904 10.9206 -74.8836
rradius 14.0317
rwrist 39.408
rhand -25.3494 14.8231
rfingers 7.12502
rthumb 1.17409 -15.1534
lclavicle 4.55217e-014 1.15295e-014
lhumerus 54.059 -11.573 69.4555
lradius 15.4643
lwrist -33.0779
lhand -20.712 1.98625
lfingers 7.12502
lthumb 5.65243 31.8909
rfemur -13.0713 -5.68167 10.7336
rtibia 47.7629
rfoot -7.84027 -9.66712
rtoes -12.4342
lfemur -14.2658 -10.4575 -19.8601
ltibia 43.5099
lfoot -8.53258 7.83726
ltoes -7.05106
166
root -4.51997 17.6282 -3.20597 327.306 -80.9407 -334.411
lowerback 25.8036 -3.37342 -2.13243
upperback 0.887686 -5.5663 -2.52836
thorax -13.5125 -2.55614 0.386172
lowerneck 7.35156 3.03741 -5.16364
upperneck 6.51313 3.46492 0.930349
head 0.689556 1.53227 1.0851
rclavicle -4.19436e-014 1.03368e-014
rhumerus 50.54 12.1196 -73.4369
rradius 14.3019
rwrist 37.5778
rhand -25.7832 15.1641
rfingers 7.12502
rthumb 0.755097 -14.8143
lclavicle -4.19436e-014 1.03368e-014
lhumerus 53.5587 -12.6872 67.8308
lradius 16.2536
lwrist -30.1235
lhand -20.9781 1.93471
lfingers 7.12502
lthumb 5.39551 31.846
rfemur -11.9498 -4.75249 10.9702
rtibia 45.8162
rfoot -8.84438 -10.2676
rtoes -12.4835
lfemur -13.4379 -10.9783 -19.9665
ltibia 42.4632
lfoot -8.95217 8.39309
ltoes -6.89503
167
root -4.56527 17.6498 -3.21715 326.481 -81.0594 -333.5
lowerback 25.216 -3.31877 -2.27114
upperback 0.800733 -5.51817 -2.57178
thorax -13.2823 -2.53355 0.365553
lowerneck 7.35486 3.06943 -4.97429
upperneck 6.64556 3.5199 0.826912
head 0.733805 1.55947 1.02043
rclavicle -6.31638e-014 1.78906e-014
rhumerus 49.9359 13.2305 -72.2691
rradius 14.7515
rwrist 35.9206
rhand -26.2428 15.5049
rfingers 7.12502
rthumb 0.311257 -14.4746
lclavicle -6.31638e-014 1.78906e-014
lhumerus 53.0331 -13.8118 66.2235
lradius 17.178
lwrist -27.3569
lhand -21.1941 1.98995
lfingers 7.12502
lthumb 5.18695 31.9065
rfemur -10.8319 -3.7917 11.1766
rtibia 43.9753
rfoot -9.89606 -10.8433
rtoes -12.254
lfemur -12.6666 -11.4535 -20.1043
ltibia 41.5427
lfoot -9.4575 8.88791
ltoes -6.71079
168
root -4.60944 17.6638 -3.22857 325.627 -81.1873 -332.553
lowerback 24.6074 -3.26511 -2.41486
upperback 0.721185 -5.46764 -2.60163
thorax -13.0285 -2.50966 0.361512
lowerneck 7.31913 3.09655 -4.70404
upperneck 6.79839 3.57953 0.61829
head 0.79407 1.59009 0.910194
rclavicle 1.63997e-014 2.46493e-014
rhumerus 49.2696 14.3524 -71.2292
rradius 15.3055
rwrist 34.3101
rhand -26.7712 15.7976
rfingers 7.12502
rthumb -0.199086 -14.182
lclavicle 1.63997e-014 2.46493e-014
lhumerus 52.4239 -14.682 65.0715
lradius 18.0879
lwrist -25.2753
lhand -21.2009 1.90644
lfingers 7.12502
lthumb 5.1804 31.8231
rfemur -9.73821 -2.74137 11.4171
rtibia 42.2648
rfoot -11.1017 -11.4133
rtoes -11.9695
lfemur -11.9621 -11.9443 -20.2415
ltibia 40.7296
lfoot -10.0338 9.40583
ltoes -6.57705
169
root -4.6529 17.6707 -3.24059 324.53 -81.3004 -331.381
lowerback 24.0224 -3.1955 -2.58742
upperback 0.644005 -5.40578 -2.64777
thorax -12.7832 -2.47943 0.353572
lowerneck 7.27552 3.12548 -4.36685
upperneck 6.95488 3.64693 0.411725
head 0.857714 1.62633 0.790263
rclavicle 3.49364e-014 -4.37326e-015
rhumerus 48.4903 15.3031 -70.5064
rradius 15.9246
rwrist 32.9788
rhand -27.2567 16.112
rfingers 7.12502
rthumb -0.667987 -13.8667
lclavicle 3.49364e-014 -4.37326e-015
lhumerus 51.7086 -15.4456 64.2338
lradius 19.0723
lwrist -23.6513
lhand -21.0486 1.8492
lfingers 7.12502
lthumb 5.32741 31.7622
rfemur -8.62329 -1.67632 11.6414
rtibia 40.672
rfoot -12.437 -11.8634
rtoes -11.6056
lfemur -11.2917 -12.4027 -20.4151
ltibia 40.024
lfoot -10.6818 9.88245
ltoes -6.40036
